<svg width="40" height="23" viewBox="0 0 40 23" fill="none" xmlns="http://www.w3.org/2000/svg">
<path opacity="0.5" d="M40 16C40 7.16345 33.732 0 26 0C20.5601 0 15.8449 3.54585 13.5273 8.72552C12.958 9.99782 11.3272 10.5893 9.97633 10.246C9.34422 10.0854 8.68208 10 8 10C3.58172 10 0 13.5817 0 18C1.19209e-05 19.6852 2.18293 20.1089 4.01417 20.4644C4.31759 20.5233 4.61136 20.5803 4.88395 20.6409L5.34622 20.7436C14.9977 22.8884 25.0023 22.8884 34.6538 20.7436L35.1161 20.6409C35.3887 20.5803 35.6824 20.5233 35.9859 20.4644C37.8171 20.1089 40 19.6853 40 18L40 16Z" fill="#B5C7FF"/>
</svg>
