<svg width="21" height="18" viewBox="0 0 21 18" fill="none" xmlns="http://www.w3.org/2000/svg">
<path d="M14 2C14 0.895431 14.8954 0 16 0C17.1046 0 18 0.895431 18 2V4C18 5.10457 17.1046 6 16 6C14.8954 6 14 5.10457 14 4V2Z" fill="#FFD600"/>
<path d="M2.00002 18C0.895446 18 1.52588e-05 17.1046 1.52588e-05 16C1.52588e-05 14.8954 0.895446 14 2.00002 14H4.00002C5.10458 14 6.00002 14.8954 6.00002 16C6.00002 17.1046 5.10458 18 4.00002 18H2.00002Z" fill="#FFD600"/>
<path d="M4.68632 7.5148C3.90527 6.73375 3.90527 5.46742 4.68632 4.68637C5.46737 3.90532 6.7337 3.90532 7.51475 4.68637L8.92896 6.10059C9.71001 6.88163 9.71001 8.14796 8.92896 8.92901C8.14792 9.71006 6.88159 9.71006 6.10054 8.92901L4.68632 7.5148Z" fill="#FFD600"/>
<path d="M8.04095 16.8143C8.01388 16.5465 8.00002 16.2749 8.00002 16C8.00002 11.5817 11.5817 8 16 8C17.705 8 19.2853 8.53335 20.5834 9.44231C18.5171 11.138 16.8396 13.3657 15.7017 15.9087C15.6666 15.9871 15.558 16.1303 15.2901 16.2395C15.0181 16.3504 14.7094 16.3687 14.4689 16.3076C13.6771 16.1064 12.8496 16 12 16C10.5936 16 9.25506 16.2903 8.04095 16.8143Z" fill="#FFD600"/>
</svg>
